<mxfile host="app.diagrams.net" agent="Mozilla/5.0 (Windows NT 10.0; Win64; x64) AppleWebKit/537.36 (KHTML, like Gecko) Chrome/129.0.0.0 Safari/537.36" version="24.7.17">
  <diagram name="PÃ¡gina-1" id="d2faEwNxbQ2x0-C0SDmR">
    <mxGraphModel dx="1050" dy="522" grid="1" gridSize="10" guides="1" tooltips="1" connect="1" arrows="1" fold="1" page="1" pageScale="1" pageWidth="827" pageHeight="1169" math="0" shadow="0">
      <root>
        <mxCell id="0" />
        <mxCell id="1" parent="0" />
        <mxCell id="JrTyx0nyBxAhCsurTgNs-3" value="" style="edgeStyle=orthogonalEdgeStyle;rounded=0;orthogonalLoop=1;jettySize=auto;html=1;" edge="1" parent="1" source="JrTyx0nyBxAhCsurTgNs-1" target="JrTyx0nyBxAhCsurTgNs-2">
          <mxGeometry relative="1" as="geometry" />
        </mxCell>
        <mxCell id="JrTyx0nyBxAhCsurTgNs-1" value="Inicio" style="strokeWidth=2;html=1;shape=mxgraph.flowchart.start_2;whiteSpace=wrap;" vertex="1" parent="1">
          <mxGeometry x="376" y="70" width="76" height="80" as="geometry" />
        </mxCell>
        <mxCell id="JrTyx0nyBxAhCsurTgNs-5" value="" style="edgeStyle=orthogonalEdgeStyle;rounded=0;orthogonalLoop=1;jettySize=auto;html=1;" edge="1" parent="1" source="JrTyx0nyBxAhCsurTgNs-2" target="JrTyx0nyBxAhCsurTgNs-12">
          <mxGeometry relative="1" as="geometry">
            <mxPoint x="414" y="260" as="targetPoint" />
          </mxGeometry>
        </mxCell>
        <mxCell id="JrTyx0nyBxAhCsurTgNs-2" value="&lt;div&gt;&lt;font style=&quot;font-size: 11px;&quot;&gt;Mostrar el mensaje: &quot;Ingrese la edad del cliente: &quot;&lt;/font&gt;&lt;/div&gt;&lt;div&gt;&lt;span style=&quot;background-color: initial;&quot;&gt;&lt;font style=&quot;font-size: 11px;&quot;&gt;Leer el dato ingresado y asiganarlo a la variable edad&lt;/font&gt;&lt;/span&gt;&lt;/div&gt;" style="shape=parallelogram;html=1;strokeWidth=2;perimeter=parallelogramPerimeter;whiteSpace=wrap;rounded=1;arcSize=12;size=0.23;fillColor=#dae8fc;strokeColor=#6c8ebf;" vertex="1" parent="1">
          <mxGeometry x="303" y="170" width="222" height="80" as="geometry" />
        </mxCell>
        <mxCell id="JrTyx0nyBxAhCsurTgNs-10" value="" style="edgeStyle=orthogonalEdgeStyle;rounded=0;orthogonalLoop=1;jettySize=auto;html=1;" edge="1" parent="1" source="JrTyx0nyBxAhCsurTgNs-7" target="JrTyx0nyBxAhCsurTgNs-9">
          <mxGeometry relative="1" as="geometry" />
        </mxCell>
        <mxCell id="JrTyx0nyBxAhCsurTgNs-7" value="Mostrar el mensaje: &quot;Puede ingresar a la discoteca&quot;" style="shape=parallelogram;perimeter=parallelogramPerimeter;whiteSpace=wrap;html=1;fixedSize=1;rounded=1;arcSize=14;strokeWidth=2;fillColor=#dae8fc;strokeColor=#6c8ebf;" vertex="1" parent="1">
          <mxGeometry x="304" y="400" width="220" height="70" as="geometry" />
        </mxCell>
        <mxCell id="JrTyx0nyBxAhCsurTgNs-9" value="FIn" style="ellipse;whiteSpace=wrap;html=1;rounded=1;arcSize=14;strokeWidth=2;" vertex="1" parent="1">
          <mxGeometry x="374" y="505" width="80" height="80" as="geometry" />
        </mxCell>
        <mxCell id="JrTyx0nyBxAhCsurTgNs-17" value="" style="edgeStyle=orthogonalEdgeStyle;rounded=0;orthogonalLoop=1;jettySize=auto;html=1;" edge="1" parent="1" source="JrTyx0nyBxAhCsurTgNs-12">
          <mxGeometry relative="1" as="geometry">
            <mxPoint x="534" y="330" as="targetPoint" />
          </mxGeometry>
        </mxCell>
        <mxCell id="JrTyx0nyBxAhCsurTgNs-20" value="" style="edgeStyle=orthogonalEdgeStyle;rounded=0;orthogonalLoop=1;jettySize=auto;html=1;" edge="1" parent="1" source="JrTyx0nyBxAhCsurTgNs-12">
          <mxGeometry relative="1" as="geometry">
            <mxPoint x="414" y="400" as="targetPoint" />
          </mxGeometry>
        </mxCell>
        <mxCell id="JrTyx0nyBxAhCsurTgNs-12" value="Si edad &amp;gt;= 18 entonces" style="strokeWidth=2;html=1;shape=mxgraph.flowchart.decision;whiteSpace=wrap;direction=south;fillColor=#f8cecc;strokeColor=#b85450;" vertex="1" parent="1">
          <mxGeometry x="364" y="280" width="100" height="100" as="geometry" />
        </mxCell>
        <mxCell id="JrTyx0nyBxAhCsurTgNs-15" value="Mostrar el mensaje: &quot;No puede ingresar a la discoteca&quot;" style="shape=parallelogram;perimeter=parallelogramPerimeter;whiteSpace=wrap;html=1;fixedSize=1;rounded=1;arcSize=14;strokeWidth=2;fillColor=#dae8fc;strokeColor=#6c8ebf;" vertex="1" parent="1">
          <mxGeometry x="540" y="275" width="220" height="80" as="geometry" />
        </mxCell>
        <mxCell id="JrTyx0nyBxAhCsurTgNs-18" value="" style="edgeStyle=orthogonalEdgeStyle;rounded=0;orthogonalLoop=1;jettySize=auto;html=1;curved=0;entryX=0.99;entryY=0.592;entryDx=0;entryDy=0;entryPerimeter=0;" edge="1" parent="1" source="JrTyx0nyBxAhCsurTgNs-15" target="JrTyx0nyBxAhCsurTgNs-9">
          <mxGeometry relative="1" as="geometry">
            <mxPoint x="620" y="360" as="sourcePoint" />
            <mxPoint x="460" y="550" as="targetPoint" />
            <Array as="points">
              <mxPoint x="620" y="552" />
            </Array>
          </mxGeometry>
        </mxCell>
        <mxCell id="JrTyx0nyBxAhCsurTgNs-22" value="SI" style="text;html=1;align=center;verticalAlign=middle;resizable=0;points=[];autosize=1;strokeColor=none;fillColor=none;" vertex="1" parent="1">
          <mxGeometry x="422" y="370" width="30" height="30" as="geometry" />
        </mxCell>
        <mxCell id="JrTyx0nyBxAhCsurTgNs-23" value="No" style="text;html=1;align=center;verticalAlign=middle;resizable=0;points=[];autosize=1;strokeColor=none;fillColor=none;" vertex="1" parent="1">
          <mxGeometry x="475" y="300" width="40" height="30" as="geometry" />
        </mxCell>
      </root>
    </mxGraphModel>
  </diagram>
</mxfile>
